<svg width="102" height="128" viewBox="0 0 102 128" fill="none" xmlns="http://www.w3.org/2000/svg">
<path d="M100.004 84.6618C93.8619 94.5745 74.2487 101.833 51 101.833C27.7513 101.833 8.13814 94.5745 1.989 84.6618C0.692143 82.5527 0 83.68 0 84.7127C0 85.76 0 99.2727 0 99.2727C0 113.382 22.8334 128 51 128C79.1666 128 102 113.382 102 99.28C102 99.28 102 85.7673 102 84.72C102 83.68 101.301 82.5527 100.004 84.6618ZM100.084 47.4545C94.0367 56.2182 74.3507 62.6545 51 62.6545C27.6493 62.6545 7.956 56.2182 1.90886 47.4545C0.663001 45.6509 0 46.6327 0 47.44C0 48.2618 0 64.5818 0 64.5818C0 77.3964 22.8334 87.7745 51 87.7745C79.1666 87.7745 102 77.3891 102 64.5818C102 64.5818 102 48.2618 102 47.44C102 46.6327 101.33 45.6509 100.084 47.4545ZM51 0C22.8334 0 0 8.58182 0 19.1491V28.3127C0 39.52 22.8334 48.6109 51 48.6109C79.1666 48.6109 102 39.52 102 28.3127V19.1491C102 8.58182 79.1666 0 51 0Z" fill="#E9E9E9"/>
</svg>
