<svg width="32" height="32" viewBox="0 0 32 32" fill="none" xmlns="http://www.w3.org/2000/svg">
<path d="M1 16C1 7.71573 7.71573 1 16 1C24.2843 1 31 7.71573 31 16C31 24.2843 24.2843 31 16 31C7.71573 31 1 24.2843 1 16Z" stroke="#0052F2" stroke-width="2"/>
<path d="M18.0645 16.6209C18.737 18.3225 19.2364 20.0743 19.561 21.864C20.024 21.5817 20.4567 21.2425 20.85 20.8493C21.8716 19.8276 22.5309 18.5402 22.7638 17.143C21.7602 16.7278 20.661 16.498 19.5092 16.498C19.0168 16.498 18.5342 16.5405 18.0645 16.6209Z" fill="#0052F2"/>
<path d="M20.8546 11.1568C20.8526 11.1549 20.8507 11.1528 20.8488 11.1509C19.5536 9.85584 17.8317 9.14258 16.0002 9.14258C15.284 9.14258 14.5846 9.25213 13.9209 9.46243C14.9847 10.7952 15.9205 12.2175 16.7225 13.7207C18.2333 13.0793 19.625 12.2101 20.8546 11.1568Z" fill="#0052F2"/>
<path d="M21.3945 11.7642C20.1046 12.8721 18.6632 13.7699 17.0947 14.4409C17.326 14.9064 17.5443 15.3793 17.7504 15.8592C18.326 15.7497 18.9133 15.6938 19.5092 15.6938C20.6633 15.6938 21.7859 15.9014 22.8511 16.31C22.8557 16.207 22.8583 16.1038 22.8583 16.0001C22.8583 14.444 22.3434 12.9674 21.3945 11.7642Z" fill="#0052F2"/>
<path d="M11.7793 21.4053C12.9797 22.3466 14.4506 22.857 15.9999 22.857C16.9847 22.857 17.9377 22.6505 18.8098 22.2586C18.4829 20.3646 17.9595 18.5371 17.2612 16.7979C14.8346 17.4602 12.8353 19.1679 11.7793 21.4053Z" fill="#0052F2"/>
<path d="M15.8709 16.4285C16.2236 16.2793 16.5831 16.1529 16.9483 16.0489C16.7556 15.6076 16.5511 15.1725 16.336 14.7437C14.4835 15.4315 12.5356 15.78 10.5347 15.78C10.0698 15.78 9.608 15.7609 9.14952 15.7234C9.14586 15.8154 9.14355 15.9077 9.14355 16.0003C9.14355 17.8318 9.85681 19.5537 11.1519 20.8488C11.1523 20.8492 11.1529 20.8496 11.1533 20.85C11.6012 19.9567 12.187 19.1448 12.9008 18.4309C13.7589 17.5729 14.7581 16.8992 15.8709 16.4285Z" fill="#0052F2"/>
<path d="M15.96 14.0215C15.1463 12.5146 14.1943 11.0927 13.1213 9.77295C12.3982 10.1079 11.7321 10.5709 11.1518 11.1511C10.1143 12.1886 9.45061 13.5002 9.22754 14.9225C9.65861 14.9578 10.0945 14.9761 10.5346 14.9761C12.439 14.9761 14.2664 14.6389 15.96 14.0215Z" fill="#0052F2"/>
</svg>
