<svg width="32" height="32" viewBox="0 0 32 32" fill="none" xmlns="http://www.w3.org/2000/svg">
<path d="M1 16C1 7.71573 7.71573 1 16 1C24.2843 1 31 7.71573 31 16C31 24.2843 24.2843 31 16 31C7.71573 31 1 24.2843 1 16Z" stroke="#0052F2" stroke-width="2"/>
<path fill-rule="evenodd" clip-rule="evenodd" d="M12.2174 13.3481H9.31425V22.0708H12.2174V13.3481Z" fill="#0052F2"/>
<path fill-rule="evenodd" clip-rule="evenodd" d="M12.4086 10.6497C12.3898 9.79449 11.7782 9.14307 10.785 9.14307C9.79187 9.14307 9.14258 9.79449 9.14258 10.6497C9.14258 11.4873 9.77268 12.1575 10.7473 12.1575H10.7659C11.7782 12.1575 12.4086 11.4873 12.4086 10.6497Z" fill="#0052F2"/>
<path fill-rule="evenodd" clip-rule="evenodd" d="M22.6873 17.0695C22.6873 14.3902 21.2551 13.1432 19.3447 13.1432C17.8033 13.1432 17.1132 13.9899 16.7279 14.5838V13.3483H13.8244C13.8626 14.1668 13.8244 22.0711 13.8244 22.0711H16.7279V17.1995C16.7279 16.9389 16.7467 16.6788 16.8235 16.4921C17.0333 15.9713 17.511 15.4321 18.3131 15.4321C19.364 15.4321 19.7841 16.232 19.7841 17.4041V22.0708H22.6872L22.6873 17.0695Z" fill="#0052F2"/>
</svg>
