<svg width="27" height="26" viewBox="0 0 27 26" fill="none" xmlns="http://www.w3.org/2000/svg">
<path d="M1.93696 0H12.1193C12.7023 0 13.2622 0.227747 13.6796 0.634676L18.825 5.65047C19.2566 6.07119 19.5 6.64837 19.5 7.25109V24.4427C19.5 25.2196 18.8203 26 18.027 26H1.93696C1.14373 26 0.5 25.3707 0.5 24.5938V1.40624C0.5 0.629311 1.14381 0 1.93696 0Z" fill="#0052F2"/>
<path d="M16.7929 6.29289L13.2071 2.70711C12.5771 2.07714 11.5 2.52331 11.5 3.41421V7C11.5 7.55228 11.9477 8 12.5 8H16.0858C16.9767 8 17.4229 6.92286 16.7929 6.29289Z" fill="white"/>
<rect x="4.75" y="11.6621" width="21.5" height="10.5592" rx="1.75" fill="#0052F2" stroke="white" stroke-width="1.5"/>
<path d="M9.95825 13.9219C10.5952 13.9219 11.1333 14.1232 11.5723 14.5258C12.0114 14.9285 12.231 15.4174 12.231 15.9926C12.231 16.5677 12.0114 17.0566 11.5723 17.4593C11.1333 17.8619 10.5952 18.0632 9.95825 18.0632H8.98423V19.9613H7.5V13.9219H9.95825ZM9.95825 16.7691C10.1871 16.7691 10.3757 16.6943 10.5241 16.5447C10.6725 16.3952 10.7467 16.2111 10.7467 15.9926C10.7467 15.774 10.6725 15.5899 10.5241 15.4404C10.3757 15.2908 10.1871 15.216 9.95825 15.216H8.98423V16.7691H9.95825Z" fill="white"/>
<path d="M15.569 13.9219C16.4657 13.9219 17.214 14.2123 17.8139 14.7933C18.42 15.3685 18.723 16.0846 18.723 16.9416C18.723 17.7986 18.42 18.5176 17.8139 19.0986C17.214 19.6738 16.4657 19.9613 15.569 19.9613H12.9716V13.9219H15.569ZM15.569 18.6327C16.0823 18.6327 16.4967 18.4802 16.8121 18.1754C17.1337 17.8648 17.2944 17.4535 17.2944 16.9416C17.2944 16.4297 17.1337 16.0213 16.8121 15.7165C16.4967 15.4059 16.0823 15.2506 15.569 15.2506H14.4559V18.6327H15.569Z" fill="white"/>
<path d="M23.5 15.2506H21.0418V16.4153H23.4536V17.744H21.0418V19.9613H19.5575V13.9219H23.5V15.2506Z" fill="white"/>
</svg>
