<svg width="24" height="24" viewBox="0 0 24 24" fill="none" xmlns="http://www.w3.org/2000/svg">
<path d="M15.6104 13.0861C16.7874 16.0639 17.6613 19.1296 18.2293 22.2617C19.0396 21.7676 19.7969 21.174 20.4852 20.4859C22.273 18.6979 23.4268 16.4449 23.8344 13.9998C22.078 13.2732 20.1545 12.8711 18.1387 12.8711C17.277 12.8711 16.4325 12.9454 15.6104 13.0861Z" fill="#0052F2"/>
<path d="M20.4955 3.52496C20.4921 3.52167 20.4888 3.51801 20.4855 3.51471C18.2188 1.24823 15.2054 0 12.0002 0C10.7468 0 9.52277 0.191711 8.36133 0.559753C10.223 2.89215 11.8607 5.38129 13.2642 8.01196C15.9082 6.88934 18.3437 5.36829 20.4955 3.52496Z" fill="#0052F2"/>
<path d="M21.4378 4.58691C19.1805 6.52582 16.658 8.09705 13.9131 9.2713C14.3177 10.0859 14.6999 10.9136 15.0606 11.7535C16.0679 11.5618 17.0956 11.464 18.1384 11.464C20.1583 11.464 22.1228 11.8273 23.987 12.5423C23.9951 12.3621 23.9996 12.1814 23.9996 11.9999C23.9996 9.27679 23.0984 6.69263 21.4378 4.58691Z" fill="#0052F2"/>
<path d="M4.61328 21.4597C6.71405 23.1069 9.28815 24.0003 11.9996 24.0003C13.723 24.0003 15.3907 23.6389 16.9169 22.9529C16.3448 19.6384 15.429 16.4402 14.2069 13.3965C9.96014 14.5555 6.46136 17.5442 4.61328 21.4597Z" fill="#0052F2"/>
<path d="M11.7731 12.7493C12.3904 12.4882 13.0195 12.267 13.6586 12.085C13.3213 11.3127 12.9635 10.5513 12.587 9.80078C9.34515 11.0045 5.93628 11.6144 2.43457 11.6144C1.62103 11.6144 0.812805 11.5809 0.010437 11.5154C0.00402832 11.6763 0 11.8378 0 11.9999C0 15.2051 1.24823 18.2185 3.51471 20.485C3.51544 20.4857 3.51636 20.4865 3.51709 20.4872C4.30096 18.9238 5.32617 17.5029 6.57532 16.2536C8.07697 14.7521 9.82562 13.5731 11.7731 12.7493Z" fill="#0052F2"/>
<path d="M11.9296 8.53772C10.5056 5.90045 8.83948 3.41223 6.96173 1.10254C5.69629 1.68866 4.53046 2.4989 3.51495 3.5144C1.69928 5.33008 0.537842 7.62531 0.147461 10.1144C0.901855 10.1761 1.66467 10.2082 2.43481 10.2082C5.7677 10.2082 8.96564 9.61823 11.9296 8.53772Z" fill="#0052F2"/>
</svg>
