<svg width="177" height="32" viewBox="0 0 177 32" fill="none" xmlns="http://www.w3.org/2000/svg">
<path d="M30.4386 29.0637C30.6462 29.5252 30.5633 30.0281 30.3139 30.4473C30.0234 30.8666 29.5663 31.1185 29.1101 31.1185H1.45821C0.960098 31.1185 0.503036 30.8666 0.254375 30.4473C-0.0361236 30.0281 -0.0779618 29.5244 0.12965 29.0637L1.41637 26.0022C1.62398 25.457 2.16393 25.0792 2.74493 25.0792H22.0923L20.8466 22.06L15.283 8.64003L9.71927 22.06C9.51166 22.6052 8.97171 22.9407 8.39071 22.9407H4.90472C4.40661 22.9407 3.94955 22.6888 3.65905 22.2696C3.4096 21.8918 3.36855 21.3466 3.53433 20.8859L11.9627 0.922985C12.1704 0.335558 12.7103 0 13.2913 0H17.277C17.858 0 18.3561 0.335558 18.6055 0.922985L30.4386 29.0637ZM53.7306 24.8273C54.5611 24.8273 55.1839 25.4985 55.1839 26.2955V29.3147C55.1839 30.1118 54.5611 30.7829 53.7306 30.7829H35.5871C34.7985 30.7829 34.1338 30.1118 34.1338 29.3147V1.46817C34.1338 0.671117 34.7985 0 35.5871 0H38.7013C39.4899 0 40.1545 0.671117 40.1545 1.46817V24.8281L53.7306 24.8273ZM72.9122 0C77.396 0 81.1749 1.55186 84.0806 4.61333C86.9035 7.59111 88.3568 11.3237 88.3568 15.7266C88.3568 20.1295 86.9035 23.8629 84.0806 26.8399C81.1741 29.9014 77.396 31.4532 72.9122 31.4532C68.4284 31.4532 64.6504 29.9014 61.7438 26.8399C58.9209 23.8621 57.4676 20.1295 57.4676 15.7266C57.4676 11.3237 58.9209 7.59111 61.7438 4.61333C64.6504 1.55186 68.4284 0 72.9122 0ZM72.9122 25.457C75.8188 25.457 78.0607 24.534 79.8045 22.6889C81.5064 20.8851 82.3369 18.5793 82.3369 15.7274C82.3369 12.8756 81.5064 10.6111 79.8045 8.76597C78.0607 6.92079 75.8188 5.99781 72.9122 5.99781C70.0057 5.99781 67.7638 6.92079 66.02 8.76597C64.318 10.6111 63.4876 12.8756 63.4876 15.7274C63.4876 18.5793 64.318 20.8859 66.02 22.6889C67.7638 24.534 70.0057 25.457 72.9122 25.457ZM114.39 0C115.178 0 115.801 0.671117 115.801 1.46817V4.4874C115.801 5.28445 115.178 5.95556 114.39 5.95556H106.211V29.3155C106.211 30.1126 105.546 30.7837 104.757 30.7837H101.643C100.813 30.7837 100.19 30.1126 100.19 29.3155V5.95556H92.0109C91.2223 5.95556 90.5577 5.28445 90.5577 4.4874V1.46817C90.5577 0.671117 91.2223 0 92.0109 0H114.39ZM141.46 0C142.29 0 142.913 0.671117 142.913 1.46817V4.4874C142.913 5.28445 142.29 5.95556 141.46 5.95556H125.766V12.3718H139.633C140.463 12.3718 141.086 13.0429 141.086 13.84V16.9015C141.086 17.6985 140.463 18.3696 139.633 18.3696H125.766V24.8281H141.46C142.29 24.8281 142.913 25.4993 142.913 26.2963V29.3155C142.913 30.1126 142.29 30.7837 141.46 30.7837H121.198C120.41 30.7837 119.745 30.1126 119.745 29.3155V1.46817C119.745 0.671117 120.41 0 121.198 0H141.46ZM172.724 4.61333C175.548 7.54887 177 11.2815 177 15.6852C177 19.5014 175.921 22.8148 173.762 25.5829L175.464 27.2607C176.004 27.8482 176.004 28.7703 175.464 29.3578L173.263 31.5807C172.972 31.8326 172.598 32 172.225 32C171.852 32 171.477 31.8326 171.187 31.5807L169.194 29.526C166.952 30.7423 164.419 31.3711 161.596 31.3711C157.112 31.3711 153.375 29.8193 150.468 26.7578C147.645 23.8223 146.192 20.0897 146.192 15.686C146.192 11.2823 147.645 7.54967 150.468 4.61413C153.376 1.55186 157.113 0 161.596 0C166.08 0 169.817 1.55186 172.724 4.61333ZM162.344 20.5496L164.545 18.3266C165.126 17.7392 166.039 17.7392 166.579 18.3266L169.527 21.2621C170.523 19.7103 170.98 17.8651 170.98 15.6844C170.98 12.8325 170.15 10.5681 168.489 8.76437C166.745 6.87695 164.461 5.99621 161.596 5.99621C158.69 5.99621 156.448 6.87695 154.704 8.76437C153.002 10.5681 152.172 12.8325 152.172 15.6844C152.172 18.5362 153.002 20.8006 154.704 22.6044C156.448 24.4918 158.69 25.3725 161.596 25.3725C162.676 25.3725 163.714 25.2466 164.669 24.9533L162.344 22.6044C162.054 22.3525 161.929 21.9755 161.929 21.5977C161.929 21.1792 162.054 20.8437 162.344 20.5496Z" fill="#444444"/>
</svg>
