<svg width="162" height="162" viewBox="0 0 162 162" fill="none" xmlns="http://www.w3.org/2000/svg">
<path d="M1.08941 94.1994C-0.363137 85.4598 -0.363137 76.5402 1.08941 67.8006C10.0133 68.0111 18.0302 63.7355 21.1479 56.2126C24.2656 48.6816 21.6175 39.9846 15.1554 33.8383C20.309 26.6255 26.6185 20.3133 33.8292 15.1567C39.9835 21.6187 48.6807 24.2667 56.2117 21.149C63.7427 18.0314 68.0103 10.0064 67.7917 1.09075C76.5367 -0.363582 85.4619 -0.363582 94.207 1.09075C93.9883 10.0145 98.264 18.0314 105.787 21.149C113.318 24.2667 122.015 21.6187 128.161 15.1567C135.374 20.3102 141.687 26.6196 146.843 33.8302C140.381 39.9846 137.733 48.6816 140.851 56.2126C143.968 63.7436 151.993 68.0111 160.909 67.7925C162.364 76.5374 162.364 85.4626 160.909 94.2075C151.985 93.9889 143.968 98.2645 140.851 105.787C137.733 113.318 140.381 122.015 146.843 128.162C141.69 135.374 135.38 141.687 128.17 146.843C122.015 140.381 113.318 137.733 105.787 140.851C98.2559 143.969 93.9883 151.994 94.207 160.909C85.4619 162.364 76.5367 162.364 67.7917 160.909C68.0103 151.985 63.7346 143.969 56.2117 140.851C48.6807 137.733 39.9835 140.381 33.8373 146.843C26.6244 141.69 20.3122 135.38 15.1554 128.17C21.6175 122.015 24.2656 113.318 21.1479 105.787C18.0302 98.2564 10.0052 93.9889 1.08941 94.2075V94.1994ZM80.9993 105.293C87.4424 105.293 93.6216 102.734 98.1775 98.1781C102.733 93.6222 105.293 87.443 105.293 81C105.293 74.557 102.733 68.3778 98.1775 63.8219C93.6216 59.266 87.4424 56.7066 80.9993 56.7066C74.5563 56.7066 68.3771 59.266 63.8211 63.8219C59.2652 68.3778 56.7057 74.557 56.7057 81C56.7057 87.443 59.2652 93.6222 63.8211 98.1781C68.3771 102.734 74.5563 105.293 80.9993 105.293Z" fill="#E1E1E1"/>
</svg>
